<?xml version="1.0" standalone="no"?>
<!DOCTYPE svg PUBLIC "-//W3C//DTD SVG 20010904//EN"
 "http://www.w3.org/TR/2001/REC-SVG-20010904/DTD/svg10.dtd">
<svg version="1.0" xmlns="http://www.w3.org/2000/svg"
 width="385.000000pt" height="208.000000pt" viewBox="0 0 385.000000 208.000000"
 preserveAspectRatio="xMidYMid meet">

<g transform="translate(0.000000,208.000000) scale(0.100000,-0.100000)"
fill="#000000" stroke="none">
<path d="M1875 1933 c-74 -6 -190 -35 -248 -63 -80 -38 -55 -47 44 -15 313 99
656 17 882 -211 178 -178 267 -386 267 -622 0 -278 -159 -528 -415 -652 -101
-50 -203 -71 -332 -71 -217 1 -402 65 -556 193 -118 98 -217 219 -263 324 -54
120 -67 189 -68 339 -1 143 9 208 45 293 10 23 14 42 9 42 -6 0 -10 7 -10 16
0 12 -6 15 -24 10 -24 -6 -56 14 -56 35 0 5 -9 9 -20 9 -12 0 -34 7 -49 15
-27 13 -54 15 -246 18 -110 1 -197 -20 -263 -63 -99 -64 -145 -150 -157 -295
-17 -200 58 -339 225 -419 63 -29 69 -30 210 -31 80 0 186 4 237 9 l92 9 37
-77 c20 -42 34 -79 31 -82 -7 -8 -118 -19 -317 -33 -80 -6 -168 -14 -197 -17
l-51 -6 14 -35 c8 -19 16 -69 18 -111 2 -63 -2 -87 -21 -131 -35 -82 -84 -136
-156 -170 -177 -87 -371 -17 -458 164 -35 72 -40 44 -8 -42 28 -72 91 -141
166 -179 52 -26 68 -29 153 -29 80 0 103 4 144 24 74 36 116 79 148 148 24 55
32 63 60 67 51 8 677 59 733 60 42 0 62 -7 122 -42 153 -91 340 -138 508 -129
237 14 422 100 581 270 l60 64 114 7 c490 29 539 39 630 128 53 51 82 116 87
198 13 178 -92 372 -239 444 -83 40 -144 48 -303 36 -215 -15 -218 -15 -222
-3 -2 6 -22 48 -43 92 -21 44 -35 83 -30 86 5 3 124 13 264 22 l255 16 55 -51
c186 -170 471 -94 500 133 l6 50 -28 -61 c-128 -270 -556 -158 -589 154 l-6
53 -76 -6 c-42 -3 -166 -12 -276 -21 -110 -8 -238 -19 -284 -23 -88 -9 -119
-4 -176 30 -111 67 -249 115 -353 124 -37 3 -78 7 -92 8 -14 2 -43 1 -65 0z
m-795 -367 c0 -3 -4 -8 -10 -11 -5 -3 -10 -1 -10 4 0 6 5 11 10 11 6 0 10 -2
10 -4z m74 -156 c-10 -4 -104 -13 -209 -20 -106 -7 -204 -18 -223 -26 -18 -7
-30 -9 -27 -4 11 18 74 29 250 45 99 9 181 18 183 20 2 1 13 0 24 -3 21 -5 21
-6 2 -12z m-13 -125 c-2 -27 -6 -84 -10 -125 l-6 -75 -155 -13 c-195 -15 -233
-11 -277 33 -28 28 -33 40 -33 79 0 54 21 100 53 118 27 14 252 36 357 34 l75
-1 -4 -50z m-678 -219 c31 -67 102 -135 185 -177 l66 -34 176 4 c315 7 303 7
307 -9 3 -11 2 -12 -4 -3 -7 10 -51 9 -203 -3 -216 -18 -274 -12 -363 33 -105
53 -192 174 -202 282 l-4 46 9 -43 c5 -24 20 -67 33 -96z m2520 37 c-7 -2 -21
-2 -30 0 -10 3 -4 5 12 5 17 0 24 -2 18 -5z m267 -61 c63 -31 99 -112 67 -153
-28 -37 -70 -44 -361 -63 l-89 -6 7 46 c3 26 6 73 6 105 0 70 -7 66 160 78
173 12 172 12 210 -7z m-2032 -243 c-3 -8 -7 -3 -11 10 -4 17 -3 21 5 13 5 -5
8 -16 6 -23z m31 -55 c12 -20 20 -38 18 -40 -2 -2 -14 14 -26 36 -28 50 -21
53 8 4z"/>
<path d="M1545 1829 c-10 -15 3 -25 16 -12 7 7 7 13 1 17 -6 3 -14 1 -17 -5z"/>
<path d="M2287 1753 c-4 -3 -7 -21 -7 -38 0 -18 -5 -46 -11 -63 -10 -29 -14
-31 -66 -34 -59 -3 -58 -2 -89 -73 -9 -22 -32 -58 -50 -80 -18 -22 -51 -72
-73 -110 -43 -74 -55 -82 -21 -14 l21 40 -28 -17 c-19 -12 -11 0 24 37 29 30
64 71 78 92 29 43 19 54 -39 43 -25 -5 -41 -18 -67 -56 -33 -49 -95 -98 -194
-155 -66 -38 -225 -199 -253 -257 -25 -51 -47 -241 -32 -268 5 -8 10 -12 11
-7 1 4 2 10 3 15 2 12 80 142 83 138 2 -2 -16 -43 -41 -92 -52 -105 -71 -163
-63 -196 19 -74 195 -57 382 39 39 20 65 30 59 23 -7 -6 -34 -23 -60 -37 -27
-13 -41 -22 -30 -19 10 4 49 13 87 22 47 11 69 20 72 32 3 13 7 9 18 -13 29
-61 108 -146 162 -173 55 -27 72 -27 122 -1 115 61 190 192 245 431 20 88 21
106 11 190 -6 53 -26 138 -46 197 -19 58 -35 114 -35 125 -1 64 -64 136 -120
136 -25 0 -26 20 0 70 26 50 25 54 -5 68 -30 14 -39 15 -48 5z m41 -237 c107
-56 166 -264 141 -503 -17 -166 -89 -306 -193 -377 -137 -93 -270 65 -283 339
-11 233 74 458 202 537 36 21 96 23 133 4z m-467 -235 c-69 -63 -73 -69 -55
-80 18 -11 17 -12 -6 -8 -24 5 -59 -30 -175 -178 -15 -19 -16 -19 -4 5 39 81
138 196 225 263 35 26 66 52 69 57 3 6 9 10 13 10 4 -1 -26 -31 -67 -69z m80
-28 c-12 -20 -14 -14 -5 12 4 9 9 14 11 11 3 -2 0 -13 -6 -23z m-14 -45 c-3
-8 -6 -5 -6 6 -1 11 2 17 5 13 3 -3 4 -12 1 -19z m-10 -50 c-3 -7 -5 -2 -5 12
0 14 2 19 5 13 2 -7 2 -19 0 -25z m18 -292 c10 -26 16 -49 13 -52 -3 -2 -16
21 -28 53 -29 72 -26 70 -50 48 -30 -27 -24 -3 6 26 20 19 25 32 23 64 -1 22
0 63 1 90 2 30 6 3 10 -67 5 -70 15 -135 25 -162z m-149 -31 c-33 -30 -64 -55
-69 -55 -5 0 17 25 49 55 33 30 64 55 69 54 6 0 -17 -24 -49 -54z m183 -67
c10 -30 9 -31 -4 -14 -8 11 -15 26 -15 33 0 22 8 14 19 -19z m-259 -2 c0 -3
-4 -8 -10 -11 -5 -3 -10 -1 -10 4 0 6 5 11 10 11 6 0 10 -2 10 -4z m-30 -20
c0 -2 -19 -19 -42 -36 l-43 -32 40 36 c40 36 45 39 45 32z"/>
<path d="M2152 1014 c10 -10 20 -16 22 -13 3 3 -5 11 -17 18 -21 13 -21 12 -5
-5z"/>
<path d="M2150 738 c0 -4 9 -8 19 -8 11 0 26 -3 35 -6 9 -3 16 -2 16 4 0 5
-16 12 -35 14 -19 2 -35 0 -35 -4z"/>
<path d="M312 637 c-51 -19 -102 -66 -123 -111 -28 -62 -23 -74 12 -27 82 114
271 119 363 10 26 -31 28 -31 21 -9 -11 39 -58 93 -103 118 -49 28 -125 36
-170 19z"/>
</g>
</svg>
